<?xml version="1.0" encoding="UTF-8" standalone="no"?>
<svg
   version="1.0"
   width="230.32614pt"
   height="296.69589pt"
   viewBox="0 0 230.32614 296.69589"
   preserveAspectRatio="xMidYMid"
   id="svg4"
   sodipodi:docname="best_shape.svg"
   inkscape:version="1.4.2 (unknown)"
   xmlns:inkscape="http://www.inkscape.org/namespaces/inkscape"
   xmlns:sodipodi="http://sodipodi.sourceforge.net/DTD/sodipodi-0.dtd"
   xmlns="http://www.w3.org/2000/svg"
   xmlns:svg="http://www.w3.org/2000/svg">
  <defs
     id="defs4" />
  <sodipodi:namedview
     id="namedview4"
     pagecolor="#ffffff"
     bordercolor="#000000"
     borderopacity="0.25"
     inkscape:showpageshadow="2"
     inkscape:pageopacity="0.0"
     inkscape:pagecheckerboard="0"
     inkscape:deskcolor="#d1d1d1"
     inkscape:document-units="pt"
     inkscape:zoom="1.3864839"
     inkscape:cx="-9.0156114"
     inkscape:cy="219.98092"
     inkscape:window-width="2560"
     inkscape:window-height="1011"
     inkscape:window-x="0"
     inkscape:window-y="0"
     inkscape:window-maximized="1"
     inkscape:current-layer="svg4" />
  <metadata
     id="metadata1">
Created by potrace 1.10, written by Peter Selinger 2001-2011
</metadata>
  <path
     d="m 124.18958,3.1776644 c 0,0.2405878 0,0.4811748 0,0.7290425 0.29344,0.03439 0.58689,0.06865 0.88925,0.10391 5.99242,1.3055 10.86425,6.6632001 15.03298,11.0139411 0.17536,0.182505 0.35071,0.36501 0.53137,0.553037 0.50082,0.523293 0.99827,1.050149 1.4956,1.577133 0.29157,0.308959 0.58313,0.617907 0.88356,0.936221 0.63018,0.761086 0.63018,0.761086 0.63018,1.490129 0.34407,0.120332 0.68815,0.240574 1.04265,0.364514 0.51369,0.603495 1.00299,1.230061 1.47712,1.868169 1.10609,1.45481 2.23237,2.796981 3.50539,4.089473 0.82038,0.856423 1.56499,1.774492 2.32153,2.692622 1.29577,1.554306 2.63294,3.069045 3.96954,4.584631 0.36066,0.409579 0.72056,0.819902 1.07965,1.230973 3.03467,3.471998 6.17544,6.828537 9.34711,10.162097 0.19538,0.205851 0.39071,0.411689 0.59202,0.623785 0.56868,0.598617 1.1387,1.19583 1.70915,1.79259 0.25016,0.263454 0.25016,0.263454 0.50536,0.532229 0.94145,0.980893 1.90958,1.912802 2.91367,2.823033 1.41527,1.287552 2.74735,2.646459 4.06965,4.037689 0.23882,0.250105 0.47761,0.50021 0.72365,0.7579 0.5001,0.524291 0.99979,1.049025 1.49906,1.574189 0.76048,0.799562 1.52277,1.597154 2.28529,2.39457 0.48864,0.512737 0.97717,1.025576 1.46556,1.53854 0.22559,0.235861 0.45117,0.47172 0.68359,0.714721 0.98566,1.039089 1.92886,2.077281 2.80323,3.22159 0.24939,0.305698 0.4988,0.611385 0.75578,0.926348 0.22937,0 0.45876,0 0.69509,0 0.0442,0.311539 0.0442,0.311539 0.0897,0.62936 0.33421,1.073737 0.85982,1.608859 1.60473,2.423504 2.64631,2.992429 5.00135,6.24945 7.29997,9.540196 0.41453,0.5869 0.41453,0.5869 1.08475,1.258738 0.37758,0.601885 0.74553,1.210459 1.10783,1.822607 1.02192,1.705063 2.09198,3.360401 3.20942,4.997931 0.54848,0.834406 0.54848,0.834406 1.07524,1.851076 0.25537,0.398945 0.25537,0.398945 0.51591,0.805938 0.34407,0 0.68814,0 1.04264,0 0,0.481172 0,0.962333 0,1.458081 0.26543,0.664099 0.26543,0.664099 0.66523,1.311426 0.14748,0.256998 0.29492,0.513996 0.44685,0.778786 0.16345,0.280083 0.32694,0.560167 0.49536,0.848737 10.20936,18.009859 10.20936,18.009859 10.20936,21.848489 0.22939,0.12035 0.45877,0.24057 0.6951,0.36451 0.24861,0.7235 0.49076,1.44977 0.71073,2.18339 0.32083,1.06056 0.66159,2.11251 1.00832,3.16404 5.92713,17.98582 5.92713,17.98582 5.92713,22.72069 0.22938,0.12036 0.45876,0.24059 0.69509,0.36454 0.17107,0.89849 0.17107,0.89849 0.30412,2.16433 0.20263,1.82159 0.43519,3.63242 0.71953,5.44218 0.0601,0.38677 0.12021,0.7735 0.1821,1.17199 0.11704,0.74725 0.23659,1.49409 0.35943,2.24034 1.1343,7.36094 1.33181,14.82645 1.30587,22.26871 -0.005,1.28963 1e-5,2.57905 0.006,3.86869 0.002,3.97151 -0.0651,7.78055 -0.79014,11.6896 -0.12905,0.92851 -0.25394,1.85691 -0.37471,2.78658 -3.24204,24.14979 -12.35883,48.63229 -29.51483,65.74339 -0.27239,0.28568 -0.54478,0.57137 -0.82542,0.86573 -0.30107,0.31576 -0.60214,0.63154 -0.91234,0.95687 -0.22042,0.23965 -0.44086,0.47929 -0.66796,0.72619 -4.95281,5.32359 -10.92466,9.77767 -17.05723,13.49013 -0.23274,0.14126 -0.46548,0.28251 -0.70528,0.42806 -18.00602,10.8721 -18.00602,10.8721 -25.70873,10.8721 -0.11476,0.24057 -0.22939,0.48116 -0.34754,0.72904 -0.71448,0.19784 -0.71448,0.19784 -1.65633,0.35171 -1.45799,0.25281 -2.9071,0.52505 -4.35526,0.83441 -0.36871,0.0782 -0.73742,0.15646 -1.11734,0.23707 -0.75579,0.16114 -1.51152,0.32251 -2.26721,0.48413 -1.84564,0.39116 -3.68048,0.75972 -5.54864,1.00884 0,0.24059 0,0.48118 0,0.72905 -0.70144,-0.10682 -1.40289,-0.21358 -2.10432,-0.32038 -0.7044,-0.10553 -0.7044,-0.10553 -1.3712,0.32038 -1.02977,0.0798 -2.05321,0.13876 -3.08452,0.18227 -0.48401,0.0213 -0.48401,0.0213 -0.97776,0.0432 -0.70636,0.0308 -1.41276,0.0608 -2.11918,0.0902 -1.12531,0.0491 -2.25001,0.10681 -3.3749,0.16553 -9.98376,0.48928 -19.79607,-0.0988 -29.717125,-1.21032 0,0.12036 0,0.24056 0,0.36451 -0.57346,0 -1.1469,0 -1.73774,0 0.11475,-0.24059 0.22936,-0.48115 0.34753,-0.72904 -0.23694,-0.0419 -0.47389,-0.0836 -0.71802,-0.12683 -12.81646,-2.29567 -24.87474,-6.22443 -36.457997,-12.43997 -1.825963,-0.9941 -1.825963,-0.9941 -3.835217,-1.28501 0,-0.36087 0,-0.72174 0,-1.09356 -0.822589,-0.6036 -1.631782,-1.13689 -2.498024,-1.66314 -2.373683,-1.48627 -4.5211,-3.11418 -6.652378,-4.95803 -0.931802,-0.80687 -0.931802,-0.80687 -2.318829,-0.66924 -0.01386,-0.20113 -0.02773,-0.40224 -0.04209,-0.60945 -0.460365,-1.27898 -1.421956,-1.93282 -2.41251,-2.76237 -1.993202,-1.72877 -3.866059,-3.54572 -5.691178,-5.46783 -0.225601,-0.23647 -0.451208,-0.47295 -0.68365,-0.71658 -1.336477,-1.41699 -2.593376,-2.8763 -3.802036,-4.41483 -0.612202,-0.64863 -1.170944,-0.98013 -1.965761,-1.33883 0,-0.36088 0,-0.72176 0,-1.09357 -0.337624,-0.67183 -0.337624,-0.67183 -0.803716,-1.32139 -0.149192,-0.22273 -0.298382,-0.44545 -0.452089,-0.67493 -0.492056,-0.65783 -0.492056,-0.65783 -1.524618,-0.91984 0,-0.36089 0,-0.72176 0,-1.09356 -0.655619,-0.77932 -1.196582,-1.35655 -2.085317,-1.82262 -0.06654,-0.39048 -0.06654,-0.39048 -0.134404,-0.78884 -0.267641,-1.29806 -0.86506,-2.25577 -1.538194,-3.35758 -1.684524,-2.83673 -3.142343,-5.78301 -4.587849,-8.75973 -0.170106,-0.34825 -0.34021,-0.69649 -0.515471,-1.0553 -0.22677,-0.46893 -0.22677,-0.46893 -0.458119,-0.94734 -0.393876,-0.81163 -0.393876,-0.81163 -1.107229,-1.49465 -0.807646,-1.27062 -0.845644,-2.14714 -1.042657,-3.64522 -0.339039,-1.02744 -0.339039,-1.02744 -0.6951068,-1.8226 -0.229385,0 -0.45877,0 -0.695107,0 -0.114695,-0.48116 -0.229384,-0.96235 -0.347552,-1.4581 -0.229384,0 -0.458771,0 -0.695105,0 0.347553,-1.09355 0.347553,-1.09355 0.695105,-1.45808 -0.150534,-0.45461 -0.150534,-0.45461 -0.304108,-0.91842 -0.193542,-0.59417 -0.193542,-0.59417 -0.390997,-1.20035 -0.129029,-0.39331 -0.258057,-0.7866 -0.390997,-1.19182 -0.304108,-1.06365 -0.304108,-1.06365 -0.304108,-2.15722 -0.344078,-0.12035 -0.688156,-0.24059 -1.042661,-0.36452 -0.412717,-1.29861 -0.412717,-1.29861 -0.695103,-2.55164 0.229384,0 0.45877,0 0.695103,0 -0.172036,-0.12036 -0.344078,-0.24059 -0.521326,-0.36454 -0.679984,-0.9509 -0.558811,-1.66387 -0.511828,-2.81649 -0.01618,-1.41205 -0.368184,-2.74842 -0.704607,-4.1094 -0.229385,0 -0.458768,0 -0.695106,0 -0.19221,-2.14033 -0.369645,-4.28075 -0.521331,-6.42469 -0.147518,-3.16001 -0.147518,-3.16001 -0.702809,-6.24843 -0.244438,-1.19837 -0.217289,-2.39189 -0.216557,-3.61163 -0.0011,-0.27991 -0.0024,-0.55983 -0.0034,-0.84822 -0.003,-0.92348 -0.0039,-1.84695 -0.0044,-2.77046 -9.72e-4,-0.64181 -0.0024,-1.28362 -0.0034,-1.92542 -0.002,-1.34396 -0.0028,-2.6879 -0.0024,-4.03187 3.3e-5,-1.72514 -0.0047,-3.45021 -0.01066,-5.17535 -0.0038,-1.32461 -0.0046,-2.64924 -0.0045,-3.97386 -3.47e-4,-0.6363 -0.002,-1.27261 -0.0047,-1.90889 -0.0033,-0.88755 -0.0024,-1.77497 -3.1e-4,-2.66252 -0.002,-0.26437 -0.0039,-0.52873 -0.006,-0.80109 0.01089,-1.81879 0.01089,-1.81879 0.78545,-2.63106 0.191824,-0.7017 0.191824,-0.7017 0.295962,-1.50936 0.04481,-0.30025 0.08962,-0.60051 0.135765,-0.90988 0.0439,-0.31434 0.0878,-0.62871 0.133048,-0.9526 0.0466,-0.30871 0.09319,-0.61742 0.141192,-0.93551 0.234985,-1.61706 0.392937,-3.16463 0.336692,-4.80569 0.229384,0 0.45877,0 0.695106,0 0.114696,-1.68409 0.229384,-3.36816 0.347551,-5.10329 0.229387,0 0.458771,0 0.695107,0 0.04302,-0.5681 0.04302,-0.5681 0.08688,-1.14767 0.276126,-2.31587 0.996274,-4.51218 1.650875,-6.73511 0.254579,-0.87012 0.508041,-1.74057 0.760273,-2.61145 0.168677,-0.57346 0.168677,-0.57346 0.340763,-1.15854 0.286114,-1.09377 0.478439,-2.17135 0.636728,-3.2926 0.229386,0 0.45877,0 0.6951058,0 0.04505,-0.26315 0.09012,-0.52627 0.136526,-0.79739 0.357759,-1.73808 0.986382,-3.37219 1.579516,-5.03495 0.204592,-0.57444 0.204592,-0.57444 0.413312,-1.16049 1.399541,-3.85038 3.062536,-7.55127 4.821703,-11.23322 -0.229386,-0.12036 -0.458771,-0.24059 -0.695107,-0.36454 0.344078,0 0.688156,0 1.042658,0 0.07436,-0.2838 0.148741,-0.56761 0.225367,-0.86003 0.635619,-1.79573 1.52461,-3.40054 2.424723,-5.06343 0.353407,-0.65421 0.705551,-1.30918 1.056234,-1.96498 0.155742,-0.28771 0.311485,-0.5754 0.471946,-0.8718 0.391479,-0.6926 0.391479,-0.6926 0.339918,-1.44634 0.341841,-0.37041 0.690277,-0.73418 1.042657,-1.09356 0.267198,-0.41232 0.520921,-0.83454 0.76163,-1.26443 0.13463,-0.23825 0.269255,-0.47647 0.407966,-0.72193 0.205812,-0.37005 0.205812,-0.37005 0.415951,-0.74756 0.275393,-0.48995 0.550985,-0.97978 0.826797,-1.46947 0.181153,-0.32459 0.181153,-0.32459 0.365962,-0.65573 0.33191,-0.578047 0.687729,-1.140797 1.044612,-1.702277 -0.114697,-0.24057 -0.229384,-0.48116 -0.347553,-0.72904 0.208775,-0.087 0.417554,-0.17386 0.632654,-0.26342 0.934472,-0.57434 1.216406,-1.10132 1.756773,-2.08318 1.191351,-2.047353 2.50578,-3.973378 3.866523,-5.900677 0.302999,-0.43026 0.302999,-0.43026 0.61212,-0.869211 1.706669,-2.411028 3.461202,-4.781152 5.239259,-7.134591 0.294194,-0.392491 0.588349,-0.785014 0.882463,-1.17757 0.151873,-0.199001 0.303756,-0.398003 0.460234,-0.60303 0.748752,-1.005336 1.334592,-1.825807 1.494742,-3.110527 0.202509,-0.0263 0.405017,-0.05258 0.613656,-0.07977 1.065513,-0.390756 1.402409,-0.981522 2.079884,-1.925139 1.416535,-1.883349 2.921436,-3.637626 4.496471,-5.376685 0.238967,-0.263896 0.477963,-0.527805 0.724205,-0.799703 0.485086,-0.535148 0.970355,-1.070121 1.455805,-1.604917 0.886894,-0.981865 1.763975,-1.972983 2.640315,-2.965214 1.680018,-1.900718 3.372108,-3.787923 5.106656,-5.634147 0.454285,-0.48422 0.454285,-0.48422 0.917747,-0.978225 0.733002,-0.684902 0.733002,-0.684902 1.428108,-0.684902 0.07187,-0.202995 0.14337,-0.405988 0.217219,-0.615126 0.525034,-0.926108 1.151654,-1.486361 1.961774,-2.140142 0.83408,-0.728662 1.57811,-1.536608 2.33919,-2.348028 1.82315,-1.940219 3.64572,-3.844009 5.6233,-5.611635 0.63344,-0.585939 1.2193,-1.201026 1.80565,-1.83826 0.91231,-0.934085 0.91231,-0.934085 1.60742,-0.934085 0.11476,-0.360874 0.22939,-0.721762 0.34754,-1.09357 0.51802,-0.536464 0.51802,-0.536464 1.19124,-1.115715 1.79921,-1.602478 3.45396,-3.339387 5.12039,-5.091111 0.33302,-0.349018 0.66605,-0.697972 0.99918,-1.046889 0.69366,-0.727007 1.38671,-1.454671 2.07932,-2.182804 0.88056,-0.925626 1.76267,-1.849611 2.64525,-2.773102 0.68678,-0.718969 1.37269,-1.438809 2.05837,-2.158902 0.4806,-0.504394 0.96185,-1.008069 1.44314,-1.511718 1.54259,-1.623865 3.03679,-3.268486 4.46111,-5.007317 0.62275,-0.759619 1.26947,-1.492529 1.92499,-2.221091 0.23835,-0.265249 0.4767,-0.530498 0.72227,-0.803798 0.24014,-0.266184 0.48028,-0.532382 0.72767,-0.806642 0.24552,-0.273238 0.49103,-0.546477 0.744,-0.828006 1.298365,-1.443005 1.298365,-1.443005 1.949555,-2.156512 0.18313,-0.20848 0.36625,-0.41696 0.55493,-0.631774 0.48772,-0.461783 0.48772,-0.461783 1.18283,-0.461783 0,-0.240587 0,-0.481174 0,-0.729042 1.21325,-1.169565 2.52948,-2.210916 3.82308,-3.2806961 0.33536,-0.296737 0.33536,-0.296737 0.67745,-0.599464 5.22637,-4.471435 10.53174,-5.3655751 17.04774,-5.2328742 z M 3.9362962,202.93524 c 0,0.60147 0,1.20294 0,1.8226 0.114697,0 0.229384,0 0.347553,0 0,-0.60146 0,-1.2029 0,-1.8226 -0.114695,0 -0.229383,0 -0.347553,0 z m 2.43287,11.66469 c 0.347552,1.09355 0.347552,1.09355 0.347552,1.09355 z m 0.347552,1.45808 c 0.347555,0.72904 0.347555,0.72904 0.347555,0.72904 z m 2.432871,7.65494 c 0.347552,0.72904 0.347552,0.72904 0.347552,0.72904 z"
     fill="#feb313"
     id="path1-3"
     style="stroke-width:0.355936" />
  <path
     d="m 181.91678,59.865115 c 3.64272,3.179713 6.57054,7.125314 9.4762,11.074849 0.15256,0.205284 0.30514,0.410568 0.46235,0.622071 19.33308,26.027608 31.5873,58.233415 34.52666,91.536475 0.0257,0.28967 0.0515,0.57934 0.078,0.87778 0.17117,2.07931 0.24375,4.15506 0.28649,6.24177 0.009,0.45735 0.0199,0.9147 0.0301,1.38589 0.47536,25.93048 -3.77933,52.35423 -16.79565,74.55591 -0.37634,0.64319 -0.37634,0.64319 -0.76027,1.29939 -5.7584,9.57134 -12.91663,18.47736 -21.47233,25.20114 -0.23798,0.19038 -0.47594,0.38074 -0.72113,0.57689 -14.04891,11.2187 -30.11321,17.78604 -47.25211,20.88064 -0.32936,0.0599 -0.65871,0.11973 -0.99803,0.18144 -7.14462,1.1956 -14.31379,1.45006 -21.53072,1.4254 -0.42904,-4e-4 -0.85807,-10e-4 -1.30011,-0.002 -6.86229,-0.0169 -13.60602,-0.27056 -20.408575,-1.30841 -0.37875,-0.0572 -0.75748,-0.11422 -1.14768,-0.17324 -16.00546,-2.51699 -32.30272,-8.48999 -45.504351,-18.81202 -0.219517,-0.17164 -0.439045,-0.34325 -0.66523,-0.52009 -7.697835,-6.05459 -14.844326,-12.87 -20.473971,-21.23406 -0.312738,-0.4553 -0.625478,-0.91056 -0.938226,-1.36583 -6.576824,-9.67953 -13.176964,-21.87276 -15.098421,-33.83624 0.150915,-0.93475 0.150915,-0.93475 0.364469,-1.58212 1.37662,0.5808 1.843838,1.29975 2.574066,2.66982 3.09058,5.47984 7.056599,10.66512 11.640225,14.7335 0.188811,0.17024 0.37762,0.34048 0.572154,0.51586 19.513655,17.561 44.562475,24.61678 69.642155,22.23385 2.86048,-0.31188 5.687375,-0.81136 8.511005,-1.39106 0.58588,-0.1176 0.58588,-0.1176 1.18363,-0.23774 19.35515,-4.02669 37.05365,-13.88128 51.2999,-28.63598 0.23819,-0.2376 0.47639,-0.47519 0.72181,-0.71998 2.01082,-2.06297 3.64609,-4.49074 5.32645,-6.86637 0.48736,-0.68488 0.98103,-1.36363 1.47745,-2.0408 1.92075,-2.63386 3.65772,-5.33959 5.21273,-8.24895 0.26308,-0.49106 0.52914,-0.98022 0.79764,-1.46781 13.70233,-24.93159 16.39078,-56.53907 10.04621,-84.46734 -0.27576,-1.15773 -0.56892,-2.30843 -0.87274,-3.4578 -0.35983,-1.36817 -0.65342,-2.74561 -0.93702,-4.13458 -0.87413,-4.23142 -2.08577,-8.30136 -3.38962,-12.39735 -0.1113,-0.35267 -0.22264,-0.70533 -0.33732,-1.0687 -1.98509,-6.273397 -4.25695,-12.311837 -6.89922,-18.295667 -0.1673,-0.385834 -0.33462,-0.771669 -0.50702,-1.169201 -0.22933,-0.521306 -0.22933,-0.521306 -0.46332,-1.053143 -0.33537,-0.958502 -0.33537,-0.958502 -0.33537,-2.54062 0.66914,-0.70763 0.66914,-0.70763 1.59455,-1.433798 5.6941,-4.736633 9.45243,-10.879793 12.9842,-17.551657 z"
     fill="#e3930f"
     id="path3-3"
     style="stroke-width:0.379681" />
  <g
     transform="matrix(0.11967446,0,0,-0.12537227,-74.752445,350.77059)"
     fill="#000000"
     stroke="none"
     id="g4">
    <path
       d="m 1683.4877,2772.7847 c 39.3601,-22.7999 74.5251,-54.6663 103.703,-89.4601 5.4281,-6.31 11.14,-12.125 17.0799,-17.9526 10.0609,-9.9148 19.3431,-20.2957 28.5587,-30.9958 8.282,-9.4629 16.7808,-18.7184 25.2979,-27.9685 10.0312,-10.9001 20.0049,-21.8279 29.6631,-33.0623 16.728,-19.296 34.357,-37.7845 51.832,-56.3995 5.9491,-6.3705 11.8704,-12.7633 17.7767,-19.1733 28.2112,-30.5466 57.1582,-60.2702 86.5869,-89.6411 7.3441,-7.3332 14.6698,-14.6846 21.9942,-22.0377 4.7587,-4.7612 9.5186,-9.5214 14.2794,-14.2804 2.1429,-2.1518 4.2859,-4.3038 6.4937,-6.5208 14.6917,-14.6308 29.9632,-28.4257 45.7062,-41.9142 -8.7089,-46.3604 -42.4219,-87.6835 -74.0529,-121.2983 -2.9419,-3.2141 -5.8837,-6.4282 -8.9146,-9.7397 -89.2963,-93.8414 -226.9968,-138.0086 -354.1499,-142.8571 -16.9187,-0.4117 -33.8284,-0.4495 -50.7513,-0.3438 -10.3001,0.054 -20.5957,10e-5 -30.8958,-0.064 -58.7565,-0.065 -115.8455,6.458 -172.9565,20.5454 -3.4881,0.854 -6.976,1.708 -10.5698,2.5879 -114.1341,29.0987 -217.8704,89.6952 -280.5138,192.2843 -23.6552,40.026 -23.6552,40.026 -23.628,56.898 4.9844,12.9724 13.8064,20.7519 23.7595,30.2061 1.9929,1.9426 3.9855,3.8851 6.0385,5.8865 12.2741,11.8838 24.8577,23.3266 37.8778,34.3884 9.9379,8.7967 19.1145,18.3226 28.3484,27.85 6.4093,6.2534 12.8407,12.0047 19.6498,17.789 20.2068,17.6517 38.9525,36.8068 57.8875,55.7982 4.0552,4.057 8.1109,8.1136 12.1673,12.1697 8.4614,8.4649 16.9168,16.9357 25.3677,25.411 10.7696,10.7995 21.5542,21.5838 32.3435,32.3636 8.3664,8.3625 16.7246,16.7331 25.0806,25.1061 3.9709,3.9771 7.9441,7.9517 11.92,11.9237 18.7313,18.7206 37.2844,37.4316 54.4927,57.5886 8.0224,9.2869 16.5612,18.0396 25.1673,26.7821 1.8213,1.8504 3.6427,3.7008 5.5192,5.6072 3.8192,3.8691 7.6431,7.7333 11.472,11.5927 3.8457,3.8885 7.6765,7.792 11.4919,11.7106 45.584,46.8118 100.8155,91.4861 168.8772,59.2201 z"
       fill="#fee6b3"
       id="path4"
       style="stroke-width:3.36771" />
    <path
       d="m 1573.9379,2777.222 c 50.0175,-5.7262 97.6146,-52.9681 128.6845,-82.9156 6.8861,-6.4678 14.1128,-12.4434 21.6348,-18.4243 12.6562,-10.1085 24.3327,-20.6922 35.9258,-31.6014 10.4182,-9.648 21.1095,-19.0844 31.8237,-28.5153 12.6189,-11.113 25.1655,-22.2545 37.3152,-33.7083 21.0429,-19.673 43.2194,-38.5229 65.2023,-57.5018 7.4837,-6.495 14.9326,-13.0126 22.3626,-19.5481 35.4884,-31.1435 71.9025,-61.448 108.9227,-91.393 9.2388,-7.4766 18.4542,-14.9715 27.668,-22.4683 5.9864,-4.8544 11.9738,-9.7074 17.9629,-14.5596 2.6957,-2.1938 5.3914,-4.3878 8.1688,-6.6482 18.4815,-14.9169 37.6925,-28.9812 57.4966,-42.7333 -2.6714,-11.5889 -5.7404,-20.805 -12.7195,-31.1723 -1.7242,-2.5617 -3.4483,-5.1234 -5.2247,-7.7628 -1.8511,-2.668 -3.7021,-5.3361 -5.6093,-8.085 -1.8947,-2.7431 -3.7894,-5.4866 -5.7417,-8.313 -36.8069,-52.2326 -36.8069,-52.2326 -59.3283,-61.3312 -11.9296,-4.8573 -19.6083,-11.7147 -28.8796,-19.4574 -3.384,-2.8076 -6.7684,-5.6151 -10.255,-8.5076 -2.5546,-2.1524 -5.109,-4.3044 -7.741,-6.5217 -7.6154,9.2674 -11.5027,17.1215 -15.6584,27.6069 -37.4185,93.6537 -102.1631,180.4827 -167.9484,262.5909 -6.1649,7.7019 -12.2868,15.4244 -18.3846,23.1613 -32.0628,40.5959 -65.1805,80.6289 -98.2216,120.7027 -8.5462,10.3712 -17.0546,20.7611 -25.5008,31.1861 -20.9713,25.8545 -42.8315,51.0858 -65.3728,76.0593 -15.6282,17.3499 -30.5207,35.0239 -45.0508,52.9906 2.7946,0 5.5892,0 8.4686,0 0,2.2672 0,4.5345 0,6.8704 z"
       fill="#e6cfa1"
       id="path8"
       style="stroke-width:3.81392" />
    <path
       d="M 1560,2783 C 1541,2773 1397,2637 1240,2480 934,2174 862,2087 771,1910 563,1505 577,1078 811,768 980,542 1296,415 1644,433 c 259,13 459,89 616,234 276,255 363,692 224,1124 -71,221 -190,405 -389,604 -72,72 -174,178 -228,236 -53,58 -115,119 -137,134 -51,36 -121,43 -170,18 z m 119,-62 c 22,-12 87,-75 153,-148 64,-70 143,-154 177,-187 73,-68 73,-72 -4,-154 -86,-94 -211,-142 -368,-142 -205,0 -374,77 -437,200 l -20,39 196,193 c 108,106 205,198 217,205 30,17 42,16 86,-6 z m -507,-511 c 131,-185 505,-247 754,-125 65,32 143,101 169,149 11,20 23,36 27,36 4,0 31,-28 59,-62 147,-176 243,-384 284,-611 14,-76 16,-131 12,-250 -6,-179 -25,-265 -92,-402 -79,-162 -186,-270 -350,-351 -151,-74 -218,-87 -445,-88 -233,-1 -306,14 -465,94 -505,252 -581,950 -162,1490 28,36 75,94 106,129 48,55 57,61 66,46 5,-9 22,-34 37,-55 z"
       id="path1" />
    <path
       d="m 2353,1513 c 1,-171 -16,-275 -68,-421 -43,-119 -112,-236 -187,-316 -32,-33 -58,-62 -58,-64 0,-9 83,43 123,78 151,134 230,334 229,585 0,109 -20,266 -36,282 -1,2 -3,-63 -3,-144 z"
       id="path3" />
    <path
       d="m 1610.7997,2653.6129 c 8.3384,-8.0484 12.1352,-13.9026 13.9669,-26.5362 1.4269,-40.0064 -13.87,-72.8812 -35.8468,-102.2589 -11.0521,-13.4754 -20.4407,-24.8523 -36.8139,-27.4227 -2.4496,-0.015 -4.8992,-0.029 -7.423,-0.044 -2.458,-0.063 -4.9158,-0.1267 -7.4482,-0.192 -8.5502,1.7227 -11.227,4.7222 -16.4664,12.7214 -6.8178,24.0601 -2.8887,43.1276 5.338,65.7199 7.4592,17.1911 16.9459,32.391 26.8161,47.7533 2.1221,3.5886 4.2443,7.1772 6.4308,10.8745 15.1382,18.9209 29.3251,27.7319 51.4465,19.385 z"
       fill="#fef2d5"
       id="path10"
       style="stroke-width:3.48741" />
    <path
       d="m 1206.4329,2067.0233 c 19.0292,-19.6822 27.6027,-35.7486 29.6756,-64.9534 -2.7397,-96.9015 -53.0033,-185.2366 -100.3261,-263.0346 -13.2049,-21.7281 -26.0321,-43.7288 -38.8732,-65.7263 -12.2923,-21.046 -24.6278,-42.0606 -36.9601,-63.0773 -1.2845,-2.1901 -2.5691,-4.3802 -3.8925,-6.6366 -8.4264,-14.3605 -16.8866,-28.6955 -25.3621,-43.0198 -2.0955,-3.5706 -4.191,-7.1413 -6.35,-10.8201 -13.9984,-23.5802 -29.1649,-45.6755 -45.21391,-67.5476 -3.49777,-4.9727 -3.49777,-4.9727 -7.0662,-10.046 -6.58616,-9.0314 -13.28285,-15.616 -21.55706,-22.666 -3.80258,-3.2836 -3.80258,-3.2836 -7.68198,-6.6336 -17.92964,-14.0128 -32.88491,-17.0169 -54.6157,-13.3701 -18.26852,11.8851 -24.97699,26.7485 -30.30698,48.9503 -1.52151,12.3598 -1.76717,24.4821 -1.68372,36.9481 0.0202,3.4511 0.0434,6.9022 0.0657,10.4579 4.22109,180.3471 127.80165,386.0996 240.65375,507.154 30.0345,31.0684 68.8255,55.9467 109.4945,34.0211 z"
       fill="#fee4a8"
       id="path5"
       style="stroke-width:3.56087" />
    <path
       d="m 874.73988,1301.4678 c 18.27133,-9.8225 25.15732,-21.6668 33.67442,-41.4196 10.92697,-37.8768 3.76077,-81.1789 -10.10232,-116.7278 -10.72576,-21.7796 -21.45189,-41.6694 -43.77675,-48.9503 -12.17311,-1.4328 -20.81331,-1.0283 -32.41164,3.2947 -17.55338,17.5618 -24.62833,37.0356 -26.47914,63.1589 -1.81811,48.0445 3.37681,91.4249 33.54288,128.3329 13.80097,12.8271 27.96162,15.311 45.55255,12.3112 z"
       fill="#fee3a7"
       id="path9"
       style="stroke-width:3.56087" />
  </g>
  <g
     inkscape:groupmode="layer"
     id="layer1"
     inkscape:label="Layer 1"
     transform="translate(-35.416325,-6.2021071)" />
</svg>
