<?xml version="1.0" encoding="UTF-8" standalone="no"?>
<svg
   width="192"
   height="192"
   viewBox="0 0 192 192"
   version="1.1"
   id="svg23"
   sodipodi:docname="favicon.svg"
   inkscape:version="1.4.2 (unknown)"
   xmlns:inkscape="http://www.inkscape.org/namespaces/inkscape"
   xmlns:sodipodi="http://sodipodi.sourceforge.net/DTD/sodipodi-0.dtd"
   xmlns="http://www.w3.org/2000/svg"
   xmlns:svg="http://www.w3.org/2000/svg">
  <sodipodi:namedview
     id="namedview23"
     pagecolor="#ffffff"
     bordercolor="#000000"
     borderopacity="0.25"
     inkscape:showpageshadow="2"
     inkscape:pageopacity="0.0"
     inkscape:pagecheckerboard="0"
     inkscape:deskcolor="#d1d1d1"
     inkscape:zoom="4.5729167"
     inkscape:cx="95.890661"
     inkscape:cy="96"
     inkscape:window-width="1920"
     inkscape:window-height="1131"
     inkscape:window-x="0"
     inkscape:window-y="0"
     inkscape:window-maximized="1"
     inkscape:current-layer="svg23" />
  <defs
     id="defs1">
    <style
       type="text/css"
       id="style1"><![CDATA[
        @font-face {
          font-family: 'Kaushan';
          src: url('/home/dm/.local/share/fonts/KaushanScript-Regular.ttf') format('truetype');
        }
      ]]></style>
  </defs>
  <!-- Rounded blue background -->
  <!-- Popcorn logo centered with padding -->
  <rect
     x="0.42824602"
     y="0.28701591"
     rx="35.925156"
     ry="35.925156"
     width="192"
     height="192"
     fill="#1976d2"
     id="rect1"
     style="stroke-width:1.99584" />
  <path
     d="m 98.50042,19.571797 c 0,0.128639 0,0.257599 0,0.390044 0.15213,0.0187 0.30424,0.03675 0.46097,0.05545 3.10614,0.698416 5.63143,3.564681 7.79227,5.892235 0.091,0.09781 0.18171,0.195303 0.27561,0.295909 0.25953,0.280019 0.51744,0.561798 0.77521,0.843725 0.15116,0.165393 0.30231,0.330582 0.458,0.500869 0.32666,0.407179 0.32666,0.407179 0.32666,0.797188 0.17849,0.06448 0.3567,0.128639 0.54044,0.194991 0.2663,0.322855 0.51992,0.658046 0.76566,0.999432 0.57333,0.778281 1.15715,1.496321 1.817,2.187786 0.42527,0.458165 0.81123,0.949317 1.20337,1.440502 0.67165,0.831514 1.36479,1.641877 2.0576,2.452677 0.18684,0.218974 0.37349,0.438634 0.55964,0.658575 1.573,1.857454 3.20102,3.653145 4.84503,5.436527 0.10128,0.110262 0.20263,0.220221 0.30682,0.333695 0.29491,0.320273 0.59025,0.639766 0.88594,0.959004 0.12961,0.141108 0.12961,0.141108 0.26182,0.284689 0.48798,0.524761 0.98982,1.023326 1.51028,1.510273 0.73359,0.688822 1.4241,1.415831 2.10951,2.160096 0.12384,0.13393 0.24764,0.267578 0.3751,0.405462 0.25921,0.280659 0.51821,0.561205 0.77701,0.842166 0.39419,0.427733 0.78932,0.85444 1.18459,1.28105 0.25311,0.274409 0.5065,0.548652 0.75968,0.823103 0.11704,0.126152 0.23382,0.252303 0.35432,0.38235 0.51091,0.55588 0.99982,1.111322 1.45306,1.723487 0.12929,0.163524 0.25857,0.327088 0.39176,0.495571 0.11898,0 0.23768,0 0.3603,0 0.0225,0.166646 0.0225,0.166646 0.0466,0.336718 0.17337,0.574411 0.44569,0.860702 0.83182,1.296534 1.3717,1.600883 2.59244,3.343338 3.78391,5.103828 0.21483,0.313978 0.21483,0.313978 0.56227,0.673402 0.19586,0.321984 0.38645,0.647553 0.57424,0.975047 0.52972,0.912187 1.08437,1.797746 1.66359,2.673802 0.28431,0.446391 0.28431,0.446391 0.55735,0.990273 0.13249,0.21337 0.13249,0.21337 0.26759,0.431192 0.17817,0 0.3567,0 0.54047,0 0,0.257288 0,0.514827 0,0.780026 0.13765,0.355282 0.13765,0.355282 0.3448,0.701592 0.0766,0.137369 0.15275,0.275052 0.23153,0.416642 0.0846,0.149821 0.16951,0.29965 0.25664,0.454054 5.29198,9.63493 5.29198,9.63493 5.29198,11.688529 0.11899,0.06448 0.23768,0.128639 0.3603,0.19499 0.12896,0.387054 0.25441,0.775601 0.3684,1.168074 0.16627,0.567375 0.34294,1.130135 0.52269,1.69271 3.07231,9.62207 3.07231,9.62207 3.07231,12.15513 0.11899,0.0645 0.23768,0.12864 0.3603,0.19499 0.0887,0.48069 0.0887,0.48069 0.15758,1.15789 0.10514,0.97452 0.22544,1.94327 0.37297,2.91146 0.0322,0.20683 0.0624,0.41382 0.0942,0.627 0.0608,0.39976 0.12252,0.799304 0.18622,1.198534 0.58797,3.93797 0.69034,7.93188 0.67689,11.91333 -0.002,0.68995 0,1.37976 0.003,2.0697 0.001,2.12468 -0.0338,4.16242 -0.40957,6.25371 -0.0669,0.49675 -0.13156,0.99344 -0.19425,1.49078 -1.68051,12.91967 -6.40616,26.01738 -15.29892,35.1715 -0.14118,0.15291 -0.28238,0.30559 -0.42788,0.46317 -0.156,0.16878 -0.31196,0.33786 -0.47289,0.51189 -0.1142,0.12822 -0.22867,0.25647 -0.34625,0.38851 -2.56725,2.84806 -5.66276,5.2309 -8.84156,7.21696 -0.12059,0.0755 -0.2412,0.15114 -0.36558,0.22894 -9.33336,5.81638 -9.33336,5.81638 -13.32604,5.81638 -0.0595,0.12857 -0.11899,0.25724 -0.18012,0.39004 -0.37034,0.106 -0.37034,0.106 -0.85854,0.18818 -0.75576,0.13527 -1.50688,0.28092 -2.25755,0.4464 -0.19105,0.0418 -0.38223,0.0838 -0.57916,0.12663 -0.39175,0.0864 -0.7835,0.17265 -1.1752,0.25879 -0.95669,0.20948 -1.90776,0.40646 -2.87613,0.53972 0,0.12875 0,0.25725 0,0.39005 -0.36358,-0.0573 -0.72719,-0.11428 -1.09077,-0.17125 -0.36513,-0.0563 -0.36513,-0.0563 -0.71076,0.17125 -0.53378,0.0425 -1.06428,0.0743 -1.59883,0.0975 -0.25083,0.0123 -0.25083,0.0123 -0.50682,0.0208 -0.36616,0.0159 -0.73231,0.0324 -1.0985,0.0483 -0.58327,0.0263 -1.16625,0.0568 -1.749365,0.0885 -5.17504,0.26163 -10.261218,-0.0529 -15.403769,-0.64754 0,0.0645 0,0.12875 0,0.1952 -0.297259,0 -0.594491,0 -0.900748,0 0.05948,-0.12874 0.118892,-0.25724 0.180155,-0.39006 -0.122813,-0.0208 -0.245657,-0.0444 -0.372184,-0.0677 -6.643369,-1.22813 -12.893747,-3.32994 -18.897893,-6.65516 -0.946483,-0.53184 -0.946483,-0.53184 -1.987974,-0.68747 0,-0.19311 0,-0.38611 0,-0.58505 -0.426382,-0.3229 -0.845825,-0.60818 -1.294846,-0.88973 -1.230386,-0.79512 -2.343496,-1.66603 -3.448236,-2.65243 -0.482998,-0.43167 -0.482998,-0.43167 -1.201955,-0.35805 -0.007,-0.10741 -0.0145,-0.21518 -0.02174,-0.32603 -0.238649,-0.68425 -0.737059,-1.034 -1.250515,-1.47781 -1.033169,-0.92489 -2.003956,-1.89691 -2.950004,-2.92523 -0.116936,-0.12646 -0.233871,-0.25282 -0.354366,-0.38336 -0.692759,-0.75805 -1.344269,-1.53877 -1.970779,-2.36184 -0.317334,-0.34698 -0.606959,-0.52435 -1.018947,-0.71627 0,-0.19311 0,-0.38611 0,-0.58503 -0.174973,-0.35943 -0.174973,-0.35943 -0.4166,-0.70691 -0.07734,-0.1194 -0.154653,-0.23829 -0.234327,-0.36109 -0.255052,-0.3519 -0.255052,-0.3519 -0.790284,-0.49207 0,-0.19312 0,-0.38615 0,-0.58505 -0.339838,-0.4169 -0.620241,-0.72572 -1.08091,-0.97508 -0.03452,-0.20922 -0.03452,-0.20922 -0.06966,-0.42198 -0.138734,-0.69446 -0.448403,-1.20683 -0.797317,-1.79626 -0.87317,-1.51758 -1.628824,-3.09378 -2.378099,-4.68633 -0.08819,-0.18637 -0.176343,-0.37259 -0.267186,-0.56454 -0.117526,-0.25075 -0.117526,-0.25075 -0.237468,-0.50681 -0.204154,-0.43422 -0.204154,-0.43422 -0.573929,-0.79961 -0.418643,-0.67977 -0.438336,-1.14866 -0.540459,-1.95012 -0.175725,-0.54967 -0.175725,-0.54967 -0.360307,-0.97505 -0.118895,0 -0.23779,0 -0.360304,0 -0.05946,-0.25724 -0.118896,-0.51487 -0.180181,-0.78007 -0.118896,0 -0.237791,0 -0.360302,0 0.180182,-0.58502 0.180182,-0.58502 0.360302,-0.78004 -0.07804,-0.24322 -0.07804,-0.24322 -0.157606,-0.49134 -0.100365,-0.31788 -0.100365,-0.31788 -0.202723,-0.64216 -0.0669,-0.21025 -0.133767,-0.42082 -0.202677,-0.63761 -0.157606,-0.56903 -0.157606,-0.56903 -0.157606,-1.15406 -0.178356,-0.0644 -0.356701,-0.12874 -0.540461,-0.19494 -0.213952,-0.69474 -0.213952,-0.69474 -0.360302,-1.36509 0.118896,0 0.237791,0 0.360302,0 -0.08918,-0.0644 -0.178356,-0.12874 -0.270232,-0.19493 -0.352463,-0.50874 -0.289681,-0.89015 -0.265306,-1.50677 -0.0086,-0.7554 -0.190839,-1.47037 -0.365231,-2.19847 -0.118895,0 -0.23779,0 -0.360306,0 -0.09962,-1.14502 -0.191618,-2.2901 -0.270233,-3.43707 -0.07645,-1.69057 -0.07645,-1.69057 -0.364298,-3.34279 -0.126734,-0.64112 -0.112614,-1.27964 -0.112265,-1.93215 -5.75e-4,-0.14977 -0.0012,-0.29968 -0.0018,-0.45379 -0.0015,-0.49404 -0.002,-0.98811 -0.0023,-1.48215 -5.02e-4,-0.34339 -0.0012,-0.68673 -0.0018,-1.03009 -0.001,-0.71896 -0.0015,-1.43798 -0.0012,-2.15696 2.1e-5,-0.92291 -0.0024,-1.84579 -0.0054,-2.76872 -0.002,-0.70863 -0.0024,-1.4173 -0.0023,-2.12593 -1.77e-4,-0.34042 -10e-4,-0.68082 -0.0024,-1.02124 -0.0017,-0.4748 -0.0012,-0.94956 -1.64e-4,-1.4244 -10e-4,-0.14141 -0.002,-0.28282 -0.003,-0.42857 0.0056,-0.97299 0.0056,-0.97299 0.407135,-1.40755 0.09946,-0.3754 0.09946,-0.3754 0.153417,-0.80749 0.02336,-0.16072 0.04644,-0.32127 0.07036,-0.48676 0.02309,-0.1682 0.0455,-0.33634 0.06894,-0.50963 0.02416,-0.16509 0.04832,-0.33029 0.07321,-0.50049 0.121793,-0.86509 0.20367,-1.69299 0.174517,-2.57095 0.118896,0 0.23779,0 0.360307,0 0.05943,-0.900944 0.118896,-1.801884 0.180181,-2.730154 0.118896,0 0.237791,0 0.36031,0 0.02201,-0.304 0.02201,-0.304 0.04502,-0.614 0.143109,-1.23894 0.516417,-2.41392 0.855729,-3.60315 0.131942,-0.46548 0.263346,-0.93119 0.394088,-1.39708 0.08743,-0.30681 0.08743,-0.30681 0.176638,-0.61979 0.148291,-0.58516 0.248018,-1.16163 0.330048,-1.76149 0.118896,0 0.23779,0 0.360304,0 0.02362,-0.14079 0.04668,-0.28159 0.07076,-0.42658 0.185416,-0.92985 0.511286,-1.80407 0.818733,-2.69361 0.106036,-0.30744 0.106036,-0.30744 0.214247,-0.62083 0.725446,-2.05988 1.587456,-4.039786 2.499314,-6.009564 -0.118895,-0.06448 -0.23779,-0.128639 -0.360303,-0.194989 0.178329,0 0.3567,0 0.540459,0 0.03858,-0.152007 0.0771,-0.303701 0.116801,-0.460094 0.32947,-0.960687 0.790278,-1.819239 1.256849,-2.708844 0.183188,-0.350017 0.365722,-0.700407 0.547495,-1.051235 0.08072,-0.153877 0.161445,-0.307749 0.244609,-0.466389 0.202946,-0.370544 0.202946,-0.370544 0.176209,-0.773795 0.177175,-0.198105 0.357799,-0.392754 0.540456,-0.585034 0.138519,-0.220533 0.27002,-0.446454 0.394792,-0.676424 0.0698,-0.127405 0.139565,-0.254796 0.211455,-0.386211 0.10668,-0.198105 0.10668,-0.198105 0.215589,-0.399949 0.14276,-0.262261 0.285603,-0.524169 0.428568,-0.786132 0.09393,-0.173506 0.09393,-0.173506 0.189685,-0.350796 0.172021,-0.309306 0.356479,-0.610324 0.541466,-0.91069 -0.05944,-0.128639 -0.118896,-0.257288 -0.180182,-0.390043 0.108211,-0.04642 0.216449,-0.09314 0.327935,-0.140791 0.484375,-0.307126 0.630517,-0.589176 0.910615,-1.114466 0.617535,-1.095281 1.298864,-2.125677 2.004204,-3.156759 0.157042,-0.230189 0.157042,-0.230189 0.317298,-0.464987 0.884649,-1.289865 1.794107,-2.557833 2.71576,-3.816893 0.152505,-0.20994 0.304983,-0.419945 0.457415,-0.629983 0.07874,-0.106523 0.15747,-0.213057 0.238596,-0.322603 0.388112,-0.537848 0.691785,-0.976763 0.774797,-1.664057 0.104963,-0.01552 0.209952,-0.02804 0.318072,-0.04268 0.552311,-0.209006 0.726933,-0.525071 1.078099,-1.0299 0.734259,-1.007563 1.514323,-1.946072 2.330737,-2.876419 0.123889,-0.141108 0.247723,-0.282528 0.375386,-0.427829 0.251454,-0.286264 0.502981,-0.57251 0.754617,-0.858611 0.459716,-0.525261 0.914352,-1.055502 1.3686,-1.586339 0.870836,-1.016848 1.747919,-2.026468 2.647015,-3.01416 0.235482,-0.259157 0.235482,-0.259157 0.475713,-0.523329 0.379949,-0.366402 0.379949,-0.366402 0.740257,-0.366402 0.03723,-0.10871 0.07434,-0.217105 0.112594,-0.329085 0.272133,-0.495449 0.596956,-0.795163 1.016878,-1.144929 0.432342,-0.389826 0.818006,-0.822075 1.21251,-1.256163 0.945027,-1.037965 1.889748,-2.056464 2.914823,-3.002105 0.328345,-0.313484 0.632017,-0.642535 0.935953,-0.983458 0.472892,-0.499716 0.472892,-0.499716 0.833205,-0.499716 0.05948,-0.193123 0.118893,-0.386118 0.180155,-0.585037 0.268508,-0.286879 0.268508,-0.286879 0.617473,-0.596867 0.932621,-0.857305 1.790351,-1.786534 2.654138,-2.723669 0.172639,-0.18658 0.345247,-0.37341 0.517925,-0.560055 0.359557,-0.388953 0.718796,-0.778217 1.07781,-1.167759 0.456432,-0.495204 0.913675,-0.989499 1.371154,-1.483549 0.355993,-0.384656 0.71153,-0.769747 1.066953,-1.154991 0.24912,-0.269739 0.498571,-0.53931 0.748049,-0.808745 0.799592,-0.868736 1.57411,-1.748561 2.3124,-2.678814 0.3228,-0.406397 0.658028,-0.798465 0.997812,-1.188227 0.123565,-0.142043 0.247105,-0.283755 0.37439,-0.430039 0.124454,-0.142343 0.248984,-0.284687 0.377183,-0.431532 0.127263,-0.146082 0.254542,-0.292486 0.385651,-0.442966 0.673002,-0.771989 0.673002,-0.771989 1.010548,-1.153717 0.09495,-0.111514 0.189845,-0.223023 0.287656,-0.337962 0.252797,-0.247009 0.252797,-0.247009 0.613139,-0.247009 0,-0.12864 0,-0.2576 0,-0.390043 0.628877,-0.625684 1.311143,-1.182808 1.981668,-1.755101 0.173979,-0.15885 0.173979,-0.15885 0.351168,-0.320707 2.709057,-2.392124 5.459085,-2.870474 8.836638,-2.799484 z M 36.167497,126.4384 c 0,0.32182 0,0.64358 0,0.97508 0.05946,0 0.118896,0 0.180182,0 0,-0.32176 0,-0.64353 0,-0.97508 -0.05946,0 -0.118896,0 -0.180182,0 z m 1.26107,6.24042 c 0.180182,0.58502 0.180182,0.58502 0.180182,0.58502 z m 0.180182,0.78007 c 0.180181,0.39 0.180181,0.39 0.180181,0.39 z m 1.261069,4.09521 C 39.05,137.94413 39.05,137.94413 39.05,137.94413 Z"
     fill="#feb313"
     id="path1-3"
     style="stroke-width:0.187435" />
  <path
     d="m 128.42315,49.898554 c 1.88821,1.701089 3.40583,3.811907 4.91196,5.924846 0.0791,0.109963 0.15823,0.219599 0.23962,0.332792 10.02123,13.924286 16.37317,31.153784 17.89677,48.970318 0.0128,0.15513 0.0258,0.30992 0.0405,0.46959 0.0887,1.11238 0.12639,2.22289 0.14859,3.33923 0.007,0.24452 0.01,0.48934 0.0161,0.74143 0.24635,13.87234 -1.95899,28.00856 -8.70597,39.88603 -0.19521,0.3441 -0.19521,0.3441 -0.39407,0.69513 -2.98487,5.12053 -6.69532,9.8851 -11.13014,13.48217 -0.12319,0.10211 -0.24668,0.20377 -0.37378,0.30872 -7.28224,6.00182 -15.60909,9.51518 -24.49301,11.17075 -0.17079,0.0321 -0.34142,0.064 -0.51731,0.0974 -3.70341,0.63961 -7.41953,0.77573 -11.160376,0.76254 -0.222543,-2.3e-4 -0.444791,-5.1e-4 -0.673939,-0.001 -3.557046,-0.007 -7.052625,-0.1448 -10.578708,-0.69997 -0.196342,-0.0312 -0.392636,-0.061 -0.594897,-0.0929 -8.296381,-1.34655 -16.74402,-4.54198 -23.587045,-10.0641 -0.113795,-0.0919 -0.227563,-0.18377 -0.344818,-0.27829 -3.990152,-3.23906 -7.694516,-6.8852 -10.612623,-11.35983 -0.162089,-0.24347 -0.324212,-0.48713 -0.486327,-0.73067 -3.409075,-5.17836 -6.830241,-11.70153 -7.826222,-18.1018 0.07823,-0.50006 0.07823,-0.50006 0.188906,-0.84641 0.713569,0.31086 0.955751,0.69537 1.334262,1.42832 1.601995,2.93163 3.657767,5.70563 6.033678,7.88214 0.09788,0.0908 0.195725,0.18222 0.296567,0.27597 10.114843,9.39481 23.098826,13.16953 36.098802,11.89473 1.482724,-0.1672 2.94803,-0.43407 4.411647,-0.74419 0.3036,-0.0631 0.3036,-0.0631 0.613538,-0.12698 10.032675,-2.15415 19.206625,-7.42617 26.591135,-15.31971 0.12348,-0.12719 0.24699,-0.25412 0.37416,-0.38517 1.04231,-1.10363 1.88994,-2.40247 2.76093,-3.67336 0.25277,-0.36642 0.50853,-0.72953 0.76585,-1.09179 0.99561,-1.40909 1.89596,-2.85659 2.70201,-4.41306 0.13636,-0.26258 0.27434,-0.52439 0.41344,-0.78526 7.10258,-13.33792 8.49612,-30.247354 5.20742,-45.188454 -0.14279,-0.61936 -0.29491,-1.23495 -0.45238,-1.849858 -0.18654,-0.73193 -0.33869,-1.468844 -0.48569,-2.211927 -0.45312,-2.263726 -1.08116,-4.441082 -1.75699,-6.632357 -0.0576,-0.188761 -0.11546,-0.377334 -0.17495,-0.571734 -1.02896,-3.35614 -2.20657,-6.586598 -3.57619,-9.787835 -0.0868,-0.206516 -0.17333,-0.412817 -0.26273,-0.6255 -0.11899,-0.278788 -0.11899,-0.278788 -0.24023,-0.563413 -0.17398,-0.512769 -0.17398,-0.512769 -0.17398,-1.359171 0.34686,-0.378581 0.34686,-0.378581 0.82654,-0.767068 2.95152,-2.534003 4.89965,-5.820498 6.73032,-9.389821 z"
     fill="#e3930f"
     id="path3-3"
     style="stroke-width:0.19994" />
  <g
     transform="matrix(0.06203289,0,0,-0.06707184,-4.620576,205.5276)"
     fill="#000000"
     stroke="none"
     id="g4">
    <path
       d="m 1683.4877,2772.7847 c 39.3601,-22.7999 74.5251,-54.6663 103.703,-89.4601 5.4281,-6.31 11.14,-12.125 17.0799,-17.9526 10.0609,-9.9148 19.3431,-20.2957 28.5587,-30.9958 8.282,-9.4629 16.7808,-18.7184 25.2979,-27.9685 10.0312,-10.9001 20.0049,-21.8279 29.6631,-33.0623 16.728,-19.296 34.357,-37.7845 51.832,-56.3995 5.9491,-6.3705 11.8704,-12.7633 17.7767,-19.1733 28.2112,-30.5466 57.1582,-60.2702 86.5869,-89.6411 7.3441,-7.3332 14.6698,-14.6846 21.9942,-22.0377 4.7587,-4.7612 9.5186,-9.5214 14.2794,-14.2804 2.1429,-2.1518 4.2859,-4.3038 6.4937,-6.5208 14.6917,-14.6308 29.9632,-28.4257 45.7062,-41.9142 -8.7089,-46.3604 -42.4219,-87.6835 -74.0529,-121.2983 -2.9419,-3.2141 -5.8837,-6.4282 -8.9146,-9.7397 -89.2963,-93.8414 -226.9968,-138.0086 -354.1499,-142.8571 -16.9187,-0.4117 -33.8284,-0.4495 -50.7513,-0.3438 -10.3001,0.054 -20.5957,10e-5 -30.8958,-0.064 -58.7565,-0.065 -115.8455,6.458 -172.9565,20.5454 -3.4881,0.854 -6.976,1.708 -10.5698,2.5879 -114.1341,29.0987 -217.8704,89.6952 -280.5138,192.2843 -23.6552,40.026 -23.6552,40.026 -23.628,56.898 4.9844,12.9724 13.8064,20.7519 23.7595,30.2061 1.9929,1.9426 3.9855,3.8851 6.0385,5.8865 12.2741,11.8838 24.8577,23.3266 37.8778,34.3884 9.9379,8.7967 19.1145,18.3226 28.3484,27.85 6.4093,6.2534 12.8407,12.0047 19.6498,17.789 20.2068,17.6517 38.9525,36.8068 57.8875,55.7982 4.0552,4.057 8.1109,8.1136 12.1673,12.1697 8.4614,8.4649 16.9168,16.9357 25.3677,25.411 10.7696,10.7995 21.5542,21.5838 32.3435,32.3636 8.3664,8.3625 16.7246,16.7331 25.0806,25.1061 3.9709,3.9771 7.9441,7.9517 11.92,11.9237 18.7313,18.7206 37.2844,37.4316 54.4927,57.5886 8.0224,9.2869 16.5612,18.0396 25.1673,26.7821 1.8213,1.8504 3.6427,3.7008 5.5192,5.6072 3.8192,3.8691 7.6431,7.7333 11.472,11.5927 3.8457,3.8885 7.6765,7.792 11.4919,11.7106 45.584,46.8118 100.8155,91.4861 168.8772,59.2201 z"
       fill="#fee6b3"
       id="path4"
       style="stroke-width:3.36771" />
    <path
       d="m 1573.9379,2777.222 c 50.0175,-5.7262 97.6146,-52.9681 128.6845,-82.9156 6.8861,-6.4678 14.1128,-12.4434 21.6348,-18.4243 12.6562,-10.1085 24.3327,-20.6922 35.9258,-31.6014 10.4182,-9.648 21.1095,-19.0844 31.8237,-28.5153 12.6189,-11.113 25.1655,-22.2545 37.3152,-33.7083 21.0429,-19.673 43.2194,-38.5229 65.2023,-57.5018 7.4837,-6.495 14.9326,-13.0126 22.3626,-19.5481 35.4884,-31.1435 71.9025,-61.448 108.9227,-91.393 9.2388,-7.4766 18.4542,-14.9715 27.668,-22.4683 5.9864,-4.8544 11.9738,-9.7074 17.9629,-14.5596 2.6957,-2.1938 5.3914,-4.3878 8.1688,-6.6482 18.4815,-14.9169 37.6925,-28.9812 57.4966,-42.7333 -2.6714,-11.5889 -5.7404,-20.805 -12.7195,-31.1723 -1.7242,-2.5617 -3.4483,-5.1234 -5.2247,-7.7628 -1.8511,-2.668 -3.7021,-5.3361 -5.6093,-8.085 -1.8947,-2.7431 -3.7894,-5.4866 -5.7417,-8.313 -36.8069,-52.2326 -36.8069,-52.2326 -59.3283,-61.3312 -11.9296,-4.8573 -19.6083,-11.7147 -28.8796,-19.4574 -3.384,-2.8076 -6.7684,-5.6151 -10.255,-8.5076 -2.5546,-2.1524 -5.109,-4.3044 -7.741,-6.5217 -7.6154,9.2674 -11.5027,17.1215 -15.6584,27.6069 -37.4185,93.6537 -102.1631,180.4827 -167.9484,262.5909 -6.1649,7.7019 -12.2868,15.4244 -18.3846,23.1613 -32.0628,40.5959 -65.1805,80.6289 -98.2216,120.7027 -8.5462,10.3712 -17.0546,20.7611 -25.5008,31.1861 -20.9713,25.8545 -42.8315,51.0858 -65.3728,76.0593 -15.6282,17.3499 -30.5207,35.0239 -45.0508,52.9906 2.7946,0 5.5892,0 8.4686,0 0,2.2672 0,4.5345 0,6.8704 z"
       fill="#e6cfa1"
       id="path8"
       style="stroke-width:3.81392" />
    <path
       d="M 1560,2783 C 1541,2773 1397,2637 1240,2480 934,2174 862,2087 771,1910 563,1505 577,1078 811,768 980,542 1296,415 1644,433 c 259,13 459,89 616,234 276,255 363,692 224,1124 -71,221 -190,405 -389,604 -72,72 -174,178 -228,236 -53,58 -115,119 -137,134 -51,36 -121,43 -170,18 z m 119,-62 c 22,-12 87,-75 153,-148 64,-70 143,-154 177,-187 73,-68 73,-72 -4,-154 -86,-94 -211,-142 -368,-142 -205,0 -374,77 -437,200 l -20,39 196,193 c 108,106 205,198 217,205 30,17 42,16 86,-6 z m -507,-511 c 131,-185 505,-247 754,-125 65,32 143,101 169,149 11,20 23,36 27,36 4,0 31,-28 59,-62 147,-176 243,-384 284,-611 14,-76 16,-131 12,-250 -6,-179 -25,-265 -92,-402 -79,-162 -186,-270 -350,-351 -151,-74 -218,-87 -445,-88 -233,-1 -306,14 -465,94 -505,252 -581,950 -162,1490 28,36 75,94 106,129 48,55 57,61 66,46 5,-9 22,-34 37,-55 z"
       id="path1" />
    <path
       d="m 2353,1513 c 1,-171 -16,-275 -68,-421 -43,-119 -112,-236 -187,-316 -32,-33 -58,-62 -58,-64 0,-9 83,43 123,78 151,134 230,334 229,585 0,109 -20,266 -36,282 -1,2 -3,-63 -3,-144 z"
       id="path3" />
    <path
       d="m 1610.7997,2653.6129 c 8.3384,-8.0484 12.1352,-13.9026 13.9669,-26.5362 1.4269,-40.0064 -13.87,-72.8812 -35.8468,-102.2589 -11.0521,-13.4754 -20.4407,-24.8523 -36.8139,-27.4227 -2.4496,-0.015 -4.8992,-0.029 -7.423,-0.044 -2.458,-0.063 -4.9158,-0.1267 -7.4482,-0.192 -8.5502,1.7227 -11.227,4.7222 -16.4664,12.7214 -6.8178,24.0601 -2.8887,43.1276 5.338,65.7199 7.4592,17.1911 16.9459,32.391 26.8161,47.7533 2.1221,3.5886 4.2443,7.1772 6.4308,10.8745 15.1382,18.9209 29.3251,27.7319 51.4465,19.385 z"
       fill="#fef2d5"
       id="path10"
       style="stroke-width:3.48741" />
    <path
       d="m 1206.4329,2067.0233 c 19.0292,-19.6822 27.6027,-35.7486 29.6756,-64.9534 -2.7397,-96.9015 -53.0033,-185.2366 -100.3261,-263.0346 -13.2049,-21.7281 -26.0321,-43.7288 -38.8732,-65.7263 -12.2923,-21.046 -24.6278,-42.0606 -36.9601,-63.0773 -1.2845,-2.1901 -2.5691,-4.3802 -3.8925,-6.6366 -8.4264,-14.3605 -16.8866,-28.6955 -25.3621,-43.0198 -2.0955,-3.5706 -4.191,-7.1413 -6.35,-10.8201 -13.9984,-23.5802 -29.1649,-45.6755 -45.21391,-67.5476 -3.49777,-4.9727 -3.49777,-4.9727 -7.0662,-10.046 -6.58616,-9.0314 -13.28285,-15.616 -21.55706,-22.666 -3.80258,-3.2836 -3.80258,-3.2836 -7.68198,-6.6336 -17.92964,-14.0128 -32.88491,-17.0169 -54.6157,-13.3701 -18.26852,11.8851 -24.97699,26.7485 -30.30698,48.9503 -1.52151,12.3598 -1.76717,24.4821 -1.68372,36.9481 0.0202,3.4511 0.0434,6.9022 0.0657,10.4579 4.22109,180.3471 127.80165,386.0996 240.65375,507.154 30.0345,31.0684 68.8255,55.9467 109.4945,34.0211 z"
       fill="#fee4a8"
       id="path5"
       style="stroke-width:3.56087" />
    <path
       d="m 874.73988,1301.4678 c 18.27133,-9.8225 25.15732,-21.6668 33.67442,-41.4196 10.92697,-37.8768 3.76077,-81.1789 -10.10232,-116.7278 -10.72576,-21.7796 -21.45189,-41.6694 -43.77675,-48.9503 -12.17311,-1.4328 -20.81331,-1.0283 -32.41164,3.2947 -17.55338,17.5618 -24.62833,37.0356 -26.47914,63.1589 -1.81811,48.0445 3.37681,91.4249 33.54288,128.3329 13.80097,12.8271 27.96162,15.311 45.55255,12.3112 z"
       fill="#fee3a7"
       id="path9"
       style="stroke-width:3.56087" />
  </g>
</svg>
